<svg width="43" height="28" viewBox="0 0 43 28" fill="none" xmlns="http://www.w3.org/2000/svg">
<path d="M14.8517 0.666183C15.4219 0.239497 16.1932 0 16.9972 0C17.8013 0 18.5726 0.239497 19.1428 0.666183H14.8517ZM2.09664 10.9163L2.09502 10.9175C1.06056 11.6915 0.514004 12.7062 0.499901 13.7261C0.50721 14.7524 1.05384 15.7752 2.09504 16.5543L2.09664 16.5555L15.151 26.4051C15.1513 26.4053 15.1515 26.4055 15.1518 26.4057C15.627 26.7605 16.2932 26.9731 17.0067 26.9712C17.7206 26.9693 18.3847 26.753 18.856 26.3957C19.3245 26.0405 19.5443 25.5952 19.5423 25.1733C19.5404 24.7511 19.3161 24.3062 18.8435 23.953L18.8421 23.9519L8.82937 16.4148L7.63445 15.5153H9.13007H39.564C40.2775 15.5153 40.9424 15.3009 41.4153 14.9449L41.716 15.3443L41.4153 14.9449C41.8855 14.5909 42.1074 14.1461 42.1074 13.7244C42.1074 13.3027 41.8855 12.8579 41.4153 12.504C40.9424 12.1479 40.2775 11.9335 39.564 11.9335H9.13007H7.63081L8.82995 11.0336L18.8427 3.51937L18.8437 3.51863C19.0787 3.34316 19.2552 3.14193 19.3715 2.93165C19.4874 2.72236 19.5431 2.50576 19.5431 2.29274C19.5431 2.07971 19.4874 1.86311 19.3715 1.65382C19.2552 1.44354 19.0787 1.2423 18.8437 1.06684L18.8433 1.06651C18.3705 0.712754 17.7079 0.5 16.9972 0.5C16.287 0.5 15.6247 0.71253 15.152 1.06595C15.1517 1.06614 15.1515 1.06633 15.1512 1.06651L2.09664 10.9163Z" fill="#8949BD" stroke="black"/>
</svg>
