<svg width="140" height="140" viewBox="0 0 140 140" fill="none" xmlns="http://www.w3.org/2000/svg">
<path d="M64.7413 81.3434V56.1383C64.7413 49.8646 60.8012 44.2516 54.9324 42.1328C50.9922 40.7295 46.9972 39.7114 43.057 39.0785C41.3763 38.8308 39.7507 39.6563 38.9791 41.1697L32.3664 54.2947L25.7537 41.1697C24.9822 39.6563 23.3566 38.8308 21.6758 39.0785C17.7356 39.6838 13.7405 40.7019 9.80038 42.1328C3.98675 44.224 0.0466003 49.8372 0.0466003 56.1107V81.3434C0.0466003 83.4896 1.78243 85.2231 3.93159 85.2231H60.8561C63.0052 85.2231 64.7411 83.4621 64.7411 81.3434H64.7413ZM56.9714 77.4362H7.81833V56.1114C7.81833 53.1122 9.69193 50.4156 12.4472 49.4251C15.0097 48.5171 17.5721 47.7742 20.1346 47.2514L28.8963 64.6688C29.5576 65.9895 30.9077 66.815 32.3679 66.815C33.8281 66.815 35.1782 65.9895 35.8395 64.6688L44.6012 47.2514C47.1637 47.7742 49.7261 48.5171 52.2886 49.4251C55.0714 50.4157 56.9175 53.1122 56.9175 56.1114V77.4362H56.9714Z" fill="#CBCBCB"/>
<path d="M32.3933 33.605C41.6236 33.605 49.1455 26.0933 49.1455 16.8755C49.1455 7.6576 41.6236 0.145905 32.3933 0.145905C23.163 0.173422 15.6412 7.68528 15.6412 16.9029C15.6412 26.1205 23.163 33.605 32.3933 33.605ZM32.3933 7.93207C37.3253 7.93207 41.348 11.9494 41.348 16.8747C41.348 21.8 37.3253 25.8174 32.3933 25.8174C27.4614 25.8174 23.4386 21.8 23.4386 16.8747C23.4386 11.9494 27.4337 7.93207 32.3933 7.93207Z" fill="#CBCBCB"/>
<path d="M130.208 96.8629C126.241 95.4596 122.273 94.4415 118.333 93.8085C116.652 93.5609 115.026 94.3864 114.255 95.8997L107.642 109.025L101.029 95.8997C100.258 94.3864 98.6324 93.5609 96.9515 93.8085C93.0391 94.4139 89.0438 95.432 85.0762 96.8629C79.2074 98.9541 75.2949 104.595 75.2949 110.868V136.073C75.2949 138.22 77.0308 139.953 79.1799 139.953H136.104C138.254 139.953 139.989 138.22 139.989 136.073V110.868C140.017 104.595 136.077 98.9542 130.208 96.8629ZM132.247 132.194H83.0941V110.869C83.0941 107.87 84.9677 105.173 87.723 104.183C90.2854 103.275 92.8753 102.532 95.4103 102.009L104.172 119.426C104.833 120.747 106.183 121.572 107.644 121.572C109.104 121.572 110.454 120.747 111.115 119.426L119.877 102.009C122.412 102.532 125.002 103.275 127.564 104.183C130.347 105.173 132.193 107.87 132.193 110.869V132.194H132.247Z" fill="#CBCBCB"/>
<path d="M107.67 54.9006C98.4393 54.9006 90.9175 62.4123 90.9175 71.6302C90.9175 80.8481 98.4393 88.3598 107.67 88.3598C116.9 88.3598 124.422 80.8481 124.422 71.6302C124.422 62.4123 116.9 54.9006 107.67 54.9006ZM107.67 80.5736C102.738 80.5736 98.7149 76.5562 98.7149 71.631C98.7149 66.7057 102.738 62.6883 107.67 62.6883C112.602 62.6883 116.624 66.7057 116.624 71.631C116.624 76.5562 112.602 80.5736 107.67 80.5736Z" fill="#CBCBCB"/>
<path d="M95.7391 22.5157C102.655 23.864 108.661 27.8261 112.602 33.6596L113.869 35.5307L102.793 33.3845C100.671 32.9717 98.6321 34.3475 98.2464 36.4662C97.8331 38.5574 99.2108 40.6212 101.332 41.0064C101.332 41.0064 121.363 45.0237 122.383 45.0237C124.201 45.0237 125.827 43.7305 126.185 41.8869L130.097 21.5802C130.511 19.489 129.133 17.4252 127.011 17.0401C124.917 16.6273 122.851 18.0031 122.465 20.1218L120.316 31.2106L119.049 29.3396C113.952 21.7728 106.182 16.6548 97.2268 14.9214C88.2721 13.1881 79.1522 15.0315 71.5746 20.1494C69.7837 21.3601 69.3153 23.7539 70.5277 25.5426C71.74 27.3313 74.137 27.7989 75.9281 26.5882C81.7695 22.5985 88.823 21.1675 95.7387 22.5157H95.7391Z" fill="#CBCBCB"/>
<path d="M60.2498 113.592C54.4084 117.527 47.3549 118.958 40.4392 117.637C33.5234 116.289 27.5168 112.327 23.5767 106.493L22.3093 104.622L33.3856 106.768C35.5071 107.181 37.5462 105.805 37.9318 103.687C38.3451 101.596 36.9675 99.5317 34.8459 99.1466L14.5395 95.2117C12.418 94.799 10.379 96.1748 9.99329 98.2935L6.05314 118.572C5.63985 120.664 7.01748 122.782 9.13906 123.113C11.2055 123.443 13.3271 121.902 13.6853 120.031L15.8344 108.942L17.1018 110.813C22.199 118.38 29.969 123.498 38.9237 125.231C41.1279 125.671 54.2981 126.772 64.5759 120.003C66.3668 118.82 66.8352 116.399 65.6229 114.61C64.4381 112.849 62.0409 112.381 60.2501 113.592L60.2498 113.592Z" fill="#CBCBCB"/>
</svg>
