<svg width="130" height="130" viewBox="0 0 130 130" fill="none" xmlns="http://www.w3.org/2000/svg">
<path d="M37.4292 29.7917L49.8875 42.1958L42.1959 49.8875L29.7917 37.4292L17.3875 49.8875L9.69586 42.1958L22.1542 29.7917L9.69586 17.3875L17.3875 9.69583L29.7917 22.1542L42.1959 9.69583L49.8875 17.3875L37.4292 29.7917ZM120.304 87.8042L112.613 80.1125L100.208 92.5708L87.8042 80.1125L80.1125 87.8042L92.5709 100.208L80.1125 112.612L87.8042 120.304L100.208 107.846L112.613 120.304L120.304 112.612L107.846 100.208L120.304 87.8042ZM110.5 36.9958L93.0584 59.5833L84.5 52.7042L90.8375 44.5792C82.7541 46.2212 75.2134 49.8699 68.9094 55.1894C62.6054 60.509 57.7406 67.3287 54.7625 75.0208C59.4771 78.4207 62.8216 83.3934 64.1926 89.042C65.5636 94.6907 64.871 100.643 62.2395 105.826C59.6081 111.009 55.2111 115.081 49.8418 117.307C44.4725 119.534 38.4843 119.768 32.9573 117.968C27.4304 116.168 22.7287 112.452 19.7002 107.491C16.6717 102.53 15.5159 96.6495 16.4412 90.911C17.3666 85.1725 20.3121 79.9536 24.7466 76.1956C29.181 72.4377 34.8125 70.3881 40.625 70.4167C42.0442 70.4224 43.4593 70.5675 44.85 70.85C48.6028 61.5367 54.5949 53.2929 62.2953 46.8491C69.9958 40.4053 79.1669 35.9604 88.9959 33.9083L81.25 28.0583L88.1292 19.5L110.5 36.9958ZM54.1667 94.7917C54.1667 92.1134 53.3725 89.4952 51.8845 87.2683C50.3965 85.0414 48.2816 83.3057 45.8072 82.2808C43.3328 81.2559 40.61 80.9877 37.9832 81.5102C35.3564 82.0327 32.9435 83.3224 31.0496 85.2163C29.1558 87.1101 27.8661 89.523 27.3436 92.1498C26.8211 94.7766 27.0892 97.4994 28.1142 99.9738C29.1391 102.448 30.8748 104.563 33.1017 106.051C35.3286 107.539 37.9467 108.333 40.625 108.333C44.2165 108.333 47.6609 106.907 50.2004 104.367C52.74 101.828 54.1667 98.3831 54.1667 94.7917Z" fill="#CBCBCB"/>
</svg>
