<svg width="140" height="120" viewBox="0 0 140 120" fill="none" xmlns="http://www.w3.org/2000/svg">
<path d="M123.73 20.98H95.1825V12.2027C95.1825 5.83175 89.9873 0.636246 83.616 0.636246H56.4085C50.0375 0.636246 44.842 5.8315 44.842 12.2027V20.98H16.267C7.599 20.98 0.54425 27.7612 0.54425 36.0737V103.941C0.54425 112.445 7.46225 119.363 15.9663 119.363H124.001C132.505 119.363 139.423 112.445 139.423 103.941V36.0737C139.451 27.7612 132.396 20.98 123.728 20.98H123.73ZM52.5275 12.2027C52.5275 10.0699 54.2502 8.34725 56.383 8.34725H83.5905C85.7233 8.34725 87.446 10.0699 87.446 12.2027V20.98H52.5285L52.5275 12.2027ZM131.743 103.94C131.743 108.206 128.27 111.651 124.032 111.651H15.969C11.7035 111.651 8.258 108.179 8.258 103.94V81.327H15.34C17.4728 81.327 19.1955 79.6044 19.1955 77.4715C19.1955 75.3387 17.4729 73.616 15.34 73.616H8.258V66.7528H24.4455C26.5783 66.7528 28.301 65.0301 28.301 62.8973C28.301 60.7644 26.5784 59.0418 24.4455 59.0418H8.258V36.073C8.258 32.026 11.8675 28.7175 16.2698 28.7175H123.73C128.16 28.7175 131.742 32.026 131.742 36.073L131.743 103.94Z" fill="#CBCBCB"/>
<path d="M70 54.1475C73.3633 54.1475 76.0703 56.882 76.0703 60.2177C76.0703 62.3505 77.7929 64.0732 79.9258 64.0732C82.0586 64.0732 83.7813 62.3506 83.7813 60.2177C83.7813 53.956 79.5703 48.6512 73.8555 46.9832V44.3582C73.8555 42.2254 72.1329 40.5027 70 40.5027C67.8672 40.5027 66.1445 42.2254 66.1445 44.3582V46.9832C60.4023 48.6512 56.2188 53.956 56.2188 60.2177C56.2188 67.8192 62.3985 74.0262 70.0273 74.0262C73.3905 74.0262 76.0975 76.7607 76.0975 80.0965C76.0975 83.4597 73.363 86.1667 70.0273 86.1667C66.664 86.1667 63.957 83.4322 63.957 80.0965C63.957 77.9637 62.2344 76.241 60.1015 76.241C57.9687 76.241 56.246 77.9636 56.246 80.0965C56.246 86.3582 60.457 91.663 66.1718 93.331V95.956C66.1718 98.0888 67.8944 99.8115 70.0273 99.8115C72.1601 99.8115 73.8828 98.0888 73.8828 95.956V93.3582C79.625 91.6903 83.8085 86.3855 83.8085 80.1237C83.8085 72.5222 77.6288 66.3152 70 66.3152C66.6368 66.3152 63.9297 63.5807 63.9297 60.245C63.9297 56.8817 66.6368 54.1472 70 54.1472V54.1475Z" fill="#CBCBCB"/>
</svg>
