<svg width="110" height="140" viewBox="0 0 110 140" fill="none" xmlns="http://www.w3.org/2000/svg">
<path d="M106.569 24.7721L85.3814 3.58492C83.1801 1.38366 80.2634 0.173096 77.1542 0.173096H11.7227C5.284 0.173096 0.0834961 5.40102 0.0834961 11.8123V128.285C0.0834961 134.696 5.31142 139.925 11.7227 139.925H98.3416C104.753 139.925 109.981 134.697 109.981 128.285V32.9972C109.981 29.8881 108.77 26.9713 106.569 24.7701L106.569 24.7721ZM84.2533 13.4357L96.718 25.9004H84.2533V13.4357ZM102.221 128.314C102.221 130.46 100.488 132.193 98.3414 132.193H11.7225C9.57628 132.193 7.84274 130.46 7.84274 128.314V11.8131C7.84274 9.66688 9.57623 7.93335 11.7225 7.93335H76.4948V29.7809C76.4948 31.9271 78.2283 33.6606 80.3746 33.6606H102.222L102.221 128.314Z" fill="#CBCBCB"/>
<path d="M42.2642 114.005H18.6008C16.4545 114.005 14.721 115.739 14.721 117.885C14.721 120.031 16.4545 121.765 18.6008 121.765H42.2642C44.4104 121.765 46.1439 120.031 46.1439 117.885C46.1714 115.739 44.4104 114.005 42.2642 114.005Z" fill="#CBCBCB"/>
<path d="M18.6289 97.8541H65.9547C68.1009 97.8541 69.8344 96.1206 69.8344 93.9744C69.8344 91.8281 68.1009 90.0946 65.9547 90.0946H18.6289C16.4827 90.0946 14.7491 91.8281 14.7491 93.9744C14.7491 96.1206 16.4826 97.8541 18.6289 97.8541Z" fill="#CBCBCB"/>
<path d="M91.434 66.1837H18.6264C16.4802 66.1837 14.7466 67.9171 14.7466 70.0634C14.7466 72.2097 16.4801 73.9432 18.6264 73.9432H91.4616C93.6078 73.9432 95.3414 72.2097 95.3414 70.0634C95.3139 67.9172 93.5804 66.1837 91.4342 66.1837H91.434Z" fill="#CBCBCB"/>
<path d="M14.7496 46.151C14.7496 48.2972 16.4831 50.0307 18.6294 50.0307H91.4646C93.6108 50.0307 95.3443 48.2973 95.3443 46.151C95.3443 44.0047 93.6109 42.2712 91.4646 42.2712H18.6294C16.4832 42.2712 14.7496 44.0047 14.7496 46.151Z" fill="#CBCBCB"/>
<path d="M18.6289 26.1208H46.0629C48.2091 26.1208 49.9426 24.3873 49.9426 22.241C49.9426 20.0948 48.2091 18.3613 46.0629 18.3613H18.6289C16.4827 18.3613 14.7491 20.0948 14.7491 22.241C14.7491 24.3873 16.4826 26.1208 18.6289 26.1208Z" fill="#CBCBCB"/>
<path d="M86.4 93.6981L65.6531 114.445L56.1051 104.897C54.5918 103.384 52.1429 103.384 50.602 104.897C49.0886 106.41 49.0886 108.859 50.602 110.4L62.9016 122.7C63.6721 123.47 64.6626 123.828 65.6533 123.828C66.644 123.828 67.6345 123.443 68.405 122.7L91.9034 99.2015C93.4167 97.6882 93.4167 95.2393 91.9034 93.6984C90.3625 92.1575 87.9137 92.1575 86.4002 93.6984L86.4 93.6981Z" fill="#CBCBCB"/>
</svg>
