<svg width="140" height="116" viewBox="0 0 140 116" fill="none" xmlns="http://www.w3.org/2000/svg">
<g clip-path="url(#clip0_2_85)">
<path d="M134.525 110.489L124.454 86.5122V3.92121C124.454 1.76165 122.72 0.017334 120.574 0.017334H9.30124C7.15503 0.017334 5.42149 1.7616 5.42149 3.92121V86.5122L-4.6492 110.489C-5.1445 111.707 -5.03441 113.092 -4.31901 114.171C-3.60361 115.251 -2.39292 115.916 -1.07222 115.916H130.948C132.241 115.916 133.452 115.251 134.195 114.171C134.91 113.092 135.02 111.707 134.525 110.489H134.525ZM13.2089 56.8873H21.0509C23.1971 56.8873 24.9307 55.1431 24.9307 52.9835C24.9307 50.8238 23.1972 49.0796 21.0509 49.0796H13.2089V42.1302H28.3976C30.5438 42.1302 32.2773 40.3859 32.2773 38.2263C32.2773 36.0667 30.5439 34.3225 28.3976 34.3225H13.2089V7.82661H116.668V83.4108H13.2089V56.8873ZM4.78904 108.107L11.8882 91.218H117.989L125.088 108.107H4.78904Z" fill="#CBCBCB"/>
<path d="M74.0165 95.7617H55.856C53.7097 95.7617 51.9762 97.506 51.9762 99.6656C51.9762 101.825 53.7097 103.569 55.856 103.569H74.0165C76.1627 103.569 77.8962 101.825 77.8962 99.6656C77.8962 97.506 76.1627 95.7617 74.0165 95.7617Z" fill="#CBCBCB"/>
<path d="M93.8555 34.9886L56.5724 22.5018C55.1691 22.0311 53.6283 22.3911 52.6102 23.4432C51.5646 24.4953 51.2069 26.0457 51.6746 27.4301L64.0842 64.9728C64.607 66.5787 66.0928 67.6584 67.7712 67.6584H67.7987C69.4772 67.6584 70.963 66.5509 71.4584 64.9174L75.5032 51.9877L87.0048 63.5608C88.298 64.8621 91.1598 64.8898 92.5079 63.5608C94.0213 62.0381 94.0213 59.5739 92.5079 58.0235L81.0063 46.4503L93.8287 42.408C95.4246 41.9096 96.5253 40.4145 96.5527 38.7256C96.5252 37.0367 95.4521 35.5416 93.8561 34.9878L93.8555 34.9886ZM72.5307 40.9413C71.32 41.3289 70.3569 42.2703 69.9994 43.4884L67.633 51.0192L61.4695 32.3582L80.0152 38.5601L72.5307 40.9413Z" fill="#CBCBCB"/>
</g>
<defs>
<clipPath id="clip0_2_85">
<rect width="140" height="116" fill="white"/>
</clipPath>
</defs>
</svg>
