<svg width="140" height="140" viewBox="0 0 140 140" fill="none" xmlns="http://www.w3.org/2000/svg">
<path d="M132.699 85.1789V21.7248C136.854 20.0717 139.826 16.0213 139.826 11.2823C139.826 5.08304 134.79 0.0407715 128.6 0.0407715H11.2712C5.08027 0.0407715 0.0447998 5.08304 0.0447998 11.2823C0.0447998 16.0213 3.01637 20.0992 7.17134 21.7248V85.1789C3.01637 86.8321 0.0447998 90.8824 0.0447998 95.6214C0.0447998 101.821 5.08027 106.863 11.2712 106.863H35.0999L20.0488 134.251C19.0032 136.124 19.7186 138.466 21.5897 139.541C22.9655 140.34 25.882 139.872 26.8727 137.998L34.5771 124.001H105.347L113.051 137.998C114.179 140.009 117.124 140.147 118.334 139.541C120.233 138.549 120.893 136.152 119.875 134.251L104.824 106.863H128.653C134.844 106.863 139.879 101.821 139.879 95.6214C139.824 90.8824 136.853 86.832 132.698 85.1789H132.699ZM38.8151 116.204L43.9605 106.864H95.9379L101.083 116.204H38.8151ZM128.599 99.094H11.2705C9.37187 99.094 7.83096 97.5511 7.83096 95.6499C7.83096 93.7487 9.37184 92.2057 11.2705 92.2057H128.624C130.523 92.2057 132.063 93.7487 132.063 95.6499C132.063 97.5511 130.523 99.094 128.596 99.094H128.599ZM20.2139 56.9114H14.9308V49.9956H29.3766C31.5228 49.9956 33.2564 48.2598 33.2564 46.1107C33.2564 43.9615 31.5229 42.2257 29.3766 42.2257H14.9308V22.498H124.938V84.3826H14.9308V64.6549H20.2139C22.3601 64.6549 24.0936 62.9191 24.0936 60.7699C24.0936 58.6483 22.3601 56.9126 20.2139 56.9126V56.9114ZM128.599 14.7287H11.2705C9.37187 14.7287 7.83096 13.1858 7.83096 11.2846C7.83096 9.38343 9.37184 7.84047 11.2705 7.84047H128.624C130.523 7.84047 132.063 9.38343 132.063 11.2846C132.063 13.1858 130.523 14.7287 128.596 14.7287H128.599Z" fill="#CBCBCB"/>
<path d="M90.4101 70.5479C91.1255 71.2918 92.116 71.7051 93.1341 71.7051H93.1616C94.1797 71.7051 95.1428 71.3194 95.8857 70.603C100.536 66.0293 103.095 59.9401 103.095 53.4652C103.095 40.2123 92.336 29.4391 79.101 29.4391C76.9548 29.4391 75.2213 31.1749 75.2213 33.3241V53.4652C75.2213 54.4846 75.6065 55.449 76.3219 56.1929L90.4101 70.5479ZM82.9809 37.6507C90.0523 39.3865 95.3354 45.8064 95.3354 53.4385C95.3354 56.497 94.4824 59.4451 92.914 61.9798L82.9809 51.8404V37.6507Z" fill="#CBCBCB"/>
<path d="M60.7749 77.4905C67.076 77.4905 73.0468 75.0383 77.5595 70.6023C78.3025 69.8859 78.7152 68.894 78.7152 67.8746C78.7152 66.8551 78.33 65.8632 77.6146 65.1191L64.6546 51.8663V33.2956C64.6546 31.1465 62.9211 29.4106 60.7748 29.4106C47.5399 29.4106 36.7811 40.1839 36.7811 53.4367C36.7536 66.7173 47.5399 77.4903 60.7748 77.4903L60.7749 77.4905ZM56.8951 37.6482V53.436C56.8951 54.4554 57.3079 55.4198 57.9958 56.1637L69.0295 67.4327C66.553 68.9205 63.719 69.6921 60.7749 69.6921C51.8322 69.6921 44.5407 62.3906 44.5407 53.4359C44.5407 45.8312 49.7963 39.4115 56.8951 37.6481V37.6482Z" fill="#CBCBCB"/>
</svg>
