<svg width="100" height="100" viewBox="0 0 100 100" fill="none" xmlns="http://www.w3.org/2000/svg">
<path d="M77.5 20C80.8152 20 83.9947 21.317 86.3389 23.6612C88.6831 26.0054 90 29.1848 90 32.5V72.5C90 75.8152 88.6831 78.9946 86.3389 81.3388C83.9947 83.6831 80.8152 85 77.5 85H22.5C19.1848 85 16.0054 83.6831 13.6612 81.3388C11.317 78.9946 10 75.8152 10 72.5V32.5C10 29.1848 11.317 26.0054 13.6612 23.6612C16.0054 21.317 19.1848 20 22.5 20H77.5ZM85 39.805L51.27 59.655C50.9511 59.8422 50.5947 59.9564 50.2264 59.9892C49.858 60.0221 49.487 59.9728 49.14 59.845L48.73 59.655L15 39.815V72.5C15 74.4891 15.7902 76.3968 17.1967 77.8033C18.6032 79.2098 20.5109 80 22.5 80H77.5C79.4892 80 81.3968 79.2098 82.8033 77.8033C84.2098 76.3968 85 74.4891 85 72.5V39.805ZM77.5 25H22.5C20.5109 25 18.6032 25.7902 17.1967 27.1967C15.7902 28.6032 15 30.5109 15 32.5V34.01L50 54.6L85 34V32.5C85 30.5109 84.2098 28.6032 82.8033 27.1967C81.3968 25.7902 79.4892 25 77.5 25Z" fill="white"/>
</svg>
