<svg width="48" height="44" viewBox="0 0 48 44" fill="none" xmlns="http://www.w3.org/2000/svg">
<path d="M23.9132 0C17.5737 0.00630232 11.4958 2.32385 7.01307 6.44415C2.53035 10.5644 0.00894093 16.151 0.00208425 21.9779C-0.248983 39.5108 22.2374 50.2361 37.6621 39.9577C37.8838 39.8222 38.0737 39.6472 38.2205 39.4431C38.3674 39.239 38.4683 39.01 38.5172 38.7694C38.5661 38.5289 38.5621 38.2818 38.5054 38.0427C38.4487 37.8036 38.3405 37.5774 38.1871 37.3774C38.0337 37.1775 37.8383 37.0077 37.6123 36.8783C37.3864 36.7489 37.1345 36.6625 36.8716 36.624C36.6087 36.5856 36.34 36.5959 36.0816 36.6545C35.8231 36.7131 35.58 36.8187 35.3667 36.965C22.5184 45.5236 3.78801 36.5896 3.98727 21.9779C5.08121 -2.31867 42.7492 -2.31318 43.8392 21.9779V25.6409C43.8392 26.6124 43.4193 27.5441 42.6719 28.231C41.9246 28.918 40.9109 29.3039 39.854 29.3039C38.797 29.3039 37.7834 28.918 37.036 28.231C36.2887 27.5441 35.8688 26.6124 35.8688 25.6409V21.9779C35.3667 7.45601 12.4578 7.45784 11.9577 21.9779C11.9808 24.205 12.7377 26.3734 14.1284 28.1972C15.519 30.0211 17.4783 31.4148 19.748 32.1948C22.0177 32.9747 24.4912 33.1042 26.8425 32.5662C29.1939 32.0283 31.3127 30.8481 32.9198 29.1812C33.7841 30.5834 35.1275 31.6845 36.7417 32.314C38.3559 32.9434 40.1509 33.0659 41.8486 32.6627C43.5462 32.2594 45.0519 31.3529 46.1322 30.0834C47.2126 28.814 47.8073 27.2525 47.8244 25.6409V21.9779C47.8175 16.151 45.2961 10.5644 40.8134 6.44415C36.3307 2.32385 30.2527 0.00630232 23.9132 0ZM23.9132 29.3039C21.7993 29.3039 19.772 28.5321 18.2773 27.1582C16.7826 25.7843 15.9428 23.9209 15.9428 21.9779C15.9428 20.035 16.7826 18.1716 18.2773 16.7977C19.772 15.4238 21.7993 14.652 23.9132 14.652C26.0271 14.652 28.0544 15.4238 29.5491 16.7977C31.0439 18.1716 31.8836 20.035 31.8836 21.9779C31.8836 23.9209 31.0439 25.7843 29.5491 27.1582C28.0544 28.5321 26.0271 29.3039 23.9132 29.3039Z" fill="white"/>
</svg>
