<svg width="70" height="70" viewBox="0 0 70 70" fill="none" xmlns="http://www.w3.org/2000/svg">
<g clip-path="url(#clip0_2_132)">
<path d="M37.9166 2.91669C37.9166 2.14314 38.2239 1.40127 38.7709 0.854291C39.3179 0.30731 40.0598 1.91508e-05 40.8333 1.91508e-05C48.5662 0.00851131 55.9799 3.08415 61.4479 8.55212C66.9158 14.0201 69.9915 21.4338 70 29.1667C70 29.9402 69.6927 30.6821 69.1457 31.2291C68.5987 31.7761 67.8569 32.0834 67.0833 32.0834C66.3098 32.0834 65.5679 31.7761 65.0209 31.2291C64.4739 30.6821 64.1666 29.9402 64.1666 29.1667C64.1597 22.9804 61.6991 17.0495 57.3248 12.6752C52.9505 8.30086 47.0196 5.8403 40.8333 5.83335C40.0598 5.83335 39.3179 5.52606 38.7709 4.97908C38.2239 4.4321 37.9166 3.69023 37.9166 2.91669ZM40.8333 17.5C43.9275 17.5 46.895 18.7292 49.0829 20.9171C51.2708 23.105 52.5 26.0725 52.5 29.1667C52.5 29.9402 52.8073 30.6821 53.3542 31.2291C53.9012 31.7761 54.6431 32.0834 55.4166 32.0834C56.1902 32.0834 56.9321 31.7761 57.479 31.2291C58.026 30.6821 58.3333 29.9402 58.3333 29.1667C58.3287 24.5268 56.4834 20.0783 53.2026 16.7974C49.9217 13.5166 45.4732 11.6713 40.8333 11.6667C40.0598 11.6667 39.3179 11.974 38.7709 12.521C38.2239 13.0679 37.9166 13.8098 37.9166 14.5834C37.9166 15.3569 38.2239 16.0988 38.7709 16.6457C39.3179 17.1927 40.0598 17.5 40.8333 17.5ZM67.3546 48.8221C69.0448 50.517 69.994 52.813 69.994 55.2067C69.994 57.6004 69.0448 59.8964 67.3546 61.5913L64.7004 64.6509C40.8129 87.5204 -17.3163 29.4059 5.2004 5.44252L8.55456 2.52585C10.2514 0.882828 12.5269 -0.0260877 14.8887 -0.00425423C17.2505 0.0175792 19.5088 0.968406 21.175 2.64252C21.2654 2.73294 26.67 9.75335 26.67 9.75335C28.2736 11.4381 29.1664 13.6761 29.1626 16.002C29.1588 18.328 28.2587 20.563 26.6496 22.2425L23.2721 26.4892C25.1412 31.0308 27.8893 35.1582 31.3585 38.6345C34.8278 42.1107 38.9497 44.8671 43.4875 46.7454L47.7604 43.3475C49.4401 41.7396 51.6747 40.8406 54 40.8374C56.3253 40.8341 58.5624 41.7268 60.2466 43.33C60.2466 43.33 67.2641 48.7317 67.3546 48.8221ZM63.3412 53.0629C63.3412 53.0629 56.3616 47.6933 56.2712 47.6029C55.6703 47.0072 54.8584 46.6729 54.0123 46.6729C53.1661 46.6729 52.3542 47.0072 51.7533 47.6029C51.6746 47.6846 45.7916 52.3717 45.7916 52.3717C45.3952 52.6872 44.9234 52.8941 44.4227 52.9718C43.922 53.0496 43.4097 52.9955 42.9362 52.815C37.0576 50.6263 31.718 47.1997 27.2791 42.7673C22.8402 38.335 19.4057 33.0004 17.2083 27.125C17.0135 26.6451 16.95 26.1219 17.0243 25.6093C17.0986 25.0967 17.3081 24.6132 17.6312 24.2084C17.6312 24.2084 22.3183 18.3225 22.3971 18.2467C22.9928 17.6458 23.3271 16.8339 23.3271 15.9877C23.3271 15.1416 22.9928 14.3296 22.3971 13.7288C22.3066 13.6413 16.9371 6.65585 16.9371 6.65585C16.3272 6.109 15.5312 5.81613 14.7124 5.83728C13.8935 5.85843 13.1137 6.192 12.5329 6.7696L9.17873 9.68627C-7.27711 29.4729 43.0966 77.0525 60.4362 60.6667L63.0933 57.6042C63.716 57.0274 64.09 56.2312 64.1362 55.3837C64.1825 54.5363 63.8974 53.704 63.3412 53.0629Z" fill="white"/>
</g>
<defs>
<clipPath id="clip0_2_132">
<rect width="70" height="70" fill="white"/>
</clipPath>
</defs>
</svg>
