<svg width="90" height="90" viewBox="0 0 90 90" fill="none" xmlns="http://www.w3.org/2000/svg">
<path d="M82.2938 10.3686C81.4852 9.69842 80.5103 9.2595 79.4724 9.09841C78.4346 8.93732 77.3725 9.06007 76.3988 9.45364L9.21002 36.5774C8.12429 37.0236 7.19993 37.7894 6.55966 38.7732C5.91939 39.7571 5.59349 40.9124 5.62522 42.0858C5.65696 43.2592 6.04483 44.3952 6.73734 45.343C7.42986 46.2908 8.39426 47.0056 9.50252 47.3924L24 52.4249L31.8563 78.3974C31.8713 78.4499 31.92 78.4836 31.9425 78.5324C32.0235 78.7396 32.1417 78.9303 32.2913 79.0949C32.5186 79.3488 32.812 79.5344 33.1388 79.6311C33.1763 79.6461 33.2025 79.6799 33.24 79.6874H33.2625L33.2738 79.6911C33.5639 79.7536 33.8654 79.7381 34.1475 79.6461C34.1775 79.6386 34.2075 79.6386 34.2413 79.6274C34.5122 79.5323 34.7574 79.3757 34.9575 79.1699C34.98 79.1436 35.0175 79.1399 35.04 79.1174L46.3388 66.6449L62.8275 79.4137C63.8288 80.1974 65.0625 80.6211 66.3338 80.6211C69.0863 80.6211 71.46 78.6936 72.0263 76.0049L84.2588 15.9374C84.4663 14.9177 84.3931 13.8608 84.047 12.8794C83.701 11.898 83.095 11.0289 82.2938 10.3649V10.3686ZM35.955 57.3561L33.3038 70.2449L27.7725 51.9524L55.2038 37.6649L36.465 56.4074C36.2055 56.6667 36.0282 56.9967 35.955 57.3561ZM68.3513 75.2511C68.2809 75.5912 68.1242 75.9074 67.8963 76.1694C67.6684 76.4315 67.377 76.6305 67.05 76.7474C66.731 76.8702 66.3855 76.9078 66.0475 76.8565C65.7095 76.8052 65.3908 76.6668 65.1225 76.4549L47.2613 62.6211C46.8879 62.3329 46.4196 62.196 45.9498 62.2377C45.4799 62.2794 45.043 62.4967 44.7263 62.8461L36.8625 71.5124L39.51 58.6611L66.4688 31.6986C66.7845 31.3819 66.9766 30.9627 67.0104 30.5168C67.0442 30.0709 66.9175 29.6275 66.6532 29.2668C66.3889 28.906 66.0043 28.6517 65.5689 28.5495C65.1335 28.4474 64.6759 28.5043 64.2788 28.7099L25.4175 48.9524L10.7288 43.8449C10.3393 43.7163 9.99963 43.4695 9.757 43.1388C9.51436 42.8081 9.38085 42.41 9.37502 41.9999C9.35634 41.5862 9.46688 41.1769 9.69131 40.8288C9.91575 40.4807 10.2429 40.2111 10.6275 40.0574L77.805 12.9336C78.1493 12.7874 78.5275 12.7401 78.8972 12.7971C79.2668 12.854 79.6133 13.013 79.8975 13.2561C80.1801 13.4848 80.3937 13.7876 80.5142 14.1306C80.6347 14.4737 80.6575 14.8434 80.58 15.1986L68.3513 75.2549V75.2511Z" fill="white"/>
</svg>
